<svg xmlns="http://www.w3.org/2000/svg" x="0px" y="0px"
width="24" height="24"
viewBox="0 0 172 172"
style=" fill:#000000;"><g transform="translate(17.2,17.2) scale(0.8,0.8)"><g fill="none" fill-rule="nonzero" stroke="none" stroke-width="1" stroke-linecap="butt" stroke-linejoin="miter" stroke-miterlimit="10" stroke-dasharray="" stroke-dashoffset="0" font-family="none" font-weight="none" font-size="none" text-anchor="none" style="mix-blend-mode: normal"><path d="M0,172v-172h172v172z" fill="none" stroke="none"></path><g fill="#f1c40f" stroke="none"><path d="M70.68685,14.34733c-9.82363,0.13827 -20.14225,2.49154 -30.50032,7.5306c-11.05817,5.38217 -20.10709,14.46592 -25.48926,25.53125c-22.15933,45.58 7.65478,90.62474 49.53678,95.46224c0.41567,-1.08217 0.74892,-2.18774 1.34375,-3.20541l2.1556,-3.69531l55.69564,-95.37825c-11.91861,-16.1362 -31.13019,-26.54931 -52.74219,-26.24512zM64.5,43h14.33333v38.80078l-23.59961,23.59961l-10.13411,-10.13411l19.40039,-19.40039zM121.83333,71.66667l-50.16667,86h100.33333zM114.66667,100.33333h14.33333v28.66667h-14.33333zM114.66667,136.16667h14.33333v14.33333h-14.33333z"></path></g></g></g></svg>