<svg xmlns="http://www.w3.org/2000/svg" x="0px" y="0px"
width="24" height="24"
viewBox="0 0 172 172"
style=" fill:#000000;"><g transform="translate(17.2,17.2) scale(0.8,0.8)"><g fill="none" fill-rule="nonzero" stroke="none" stroke-width="1" stroke-linecap="butt" stroke-linejoin="miter" stroke-miterlimit="10" stroke-dasharray="" stroke-dashoffset="0" font-family="none" font-weight="none" font-size="none" text-anchor="none" style="mix-blend-mode: normal"><path d="M0,172v-172h172v172z" fill="none"></path><g fill="#e74c3c"><path d="M86,14.33333c-39.51676,0 -71.66667,32.14993 -71.66667,71.66667c0,39.51673 32.1499,71.66667 71.66667,71.66667c39.51676,0 71.66667,-32.14993 71.66667,-71.66667c0,-39.51673 -32.1499,-71.66667 -71.66667,-71.66667zM86,25.08333c14.90647,0 28.36011,5.53078 38.93376,14.38232l-85.4681,85.4611c-8.84946,-10.57307 -14.38232,-24.02224 -14.38232,-38.92676c0,-33.70702 27.20963,-60.91667 60.91667,-60.91667zM132.53434,47.06624c8.85154,10.57365 14.38232,24.02729 14.38232,38.93376c0,33.70702 -27.20963,60.91667 -60.91667,60.91667c-14.90453,0 -28.35369,-5.53285 -38.92676,-14.38232z"></path></g></g></g></svg>